<svg
    xmlns="http://www.w3.org/2000/svg"
    xmlns:xlink="http://www.w3.org/1999/xlink" version="1.1" x="0px" y="0px" width="100px" height="100px" viewBox="5.0 -10.0 100.0 135.0" enable-background="new 0 0 100 100" xml:space="preserve">
    <g id="edit">
        <g>
            <rect x="16.454" y="33.486" transform="matrix(0.6104 0.7921 -0.7921 0.6104 54.7974 -22.3336)" width="67.294" height="22.096"/>
            <rect x="13.446" y="5.547" transform="matrix(0.7921 -0.6104 0.6104 0.7921 -1.8074 17.3002)" width="22.097" height="11.513"/>
        </g>
        <path d="M81.73,92.041L63.449,79.944L80.936,66.47l6.992,20.668c-1.157,0.475-2.269,1.104-3.304,1.899   C83.487,89.914,82.518,90.925,81.73,92.041z"/>
        <path d="M91.994,99.008l-8.62-5.792c0.675-0.94,1.489-1.797,2.447-2.533c0.854-0.658,1.776-1.192,2.732-1.585L91.994,99.008z"/>
        <rect x="8" y="99" width="84" height="1"/>
    </g>
</svg>