<?xml version="1.0" encoding="utf-8"?>
<!-- Generator: Adobe Illustrator 19.0.0, SVG Export Plug-In . SVG Version: 6.00 Build 0)  -->
<svg version="1.1" id="Layer_1" xmlns="http://www.w3.org/2000/svg" xmlns:xlink="http://www.w3.org/1999/xlink" x="0px" y="0px"
	 viewBox="0 0 258.8 41.8" style="enable-background:new 0 0 258.8 41.8;" xml:space="preserve">
<style type="text/css">
	.st0{fill:none;stroke:#000000;stroke-miterlimit:10;}
</style>
<line class="st0" x1="252" y1="12.9" x2="256.3" y2="16.3"/>
<line class="st0" x1="256.3" y1="16.3" x2="256.3" y2="33.9"/>
<line class="st0" x1="256.3" y1="33.9" x2="253.8" y2="36.8"/>
<line class="st0" x1="33" y1="36.5" x2="29.7" y2="40.3"/>
<line class="st0" x1="29.7" y1="40.3" x2="19.3" y2="40.3"/>
<line class="st0" x1="16.3" y1="36.5" x2="5.4" y2="36.5"/>
<line class="st0" x1="16.3" y1="36.5" x2="19.3" y2="40.3"/>
<line class="st0" x1="5.4" y1="36.5" x2="2" y2="33.5"/>
<path class="st0" d="M2,20.6C2,10,21.8,1.5,46.3,1.5"/>
<path class="st0" d="M89.1,12.9C86,8.7,80.4,6.8,75.7,5.4c-6-1.9-12.2-2.8-18.4-3.4c-3.7-0.3-7.3-0.5-11-0.5"/>
<line class="st0" x1="2" y1="20.6" x2="2" y2="33.5"/>
<line class="st0" x1="89.1" y1="12.9" x2="252" y2="12.9"/>
<line class="st0" x1="33" y1="36.5" x2="253.8" y2="36.8"/>
<text transform="matrix(1 0 0 1 11.3692 28.6711)" class="st1 st2">{{ block.name }}</text>
</svg>
