<?xml version="1.0" encoding="utf-8"?>
<!-- Generator: Adobe Illustrator 19.0.0, SVG Export Plug-In . SVG Version: 6.00 Build 0)  -->
<svg version="1.1" id="Layer_1" xmlns="http://www.w3.org/2000/svg" xmlns:xlink="http://www.w3.org/1999/xlink" x="0px" y="0px"
	 viewBox="0 0 258.8 41.8" style="enable-background:new 0 0 258.8 41.8;" xml:space="preserve">
<style type="text/css">
	.st0{fill:none;stroke:#000000;stroke-miterlimit:10;}
</style>
<path class="st0" d="M258.3,4.8L258.3,4.8l-7.8-4.1l-75-0.2L73.7,1.2l-5.1,4.3H42.9V5.4L36.1,1H8.1l-7.6,5l1,26.5l6.6,3.8l27.9,0.7
	l7.1,4.5h25.1c0,0,0,0,0.1,0v0l6.9-5.1h176.5c0,0,0.1,0,0.1-0.1l6.5-4.3L258.3,4.8C258.3,4.8,258.3,4.8,258.3,4.8z"/>
<text transform="matrix(1.0276 0 0 1 9.0105 22.9168)" class="st1 st2">{{ block.name }}({{ block.inputs.join(", ") }})</text>
</svg>