<!-- Minimize icon created by Sergey Krivoy from the Noun Project. License info and more at (https://thenounproject.com/search?q=minimize&i=66376). My copy is modified. -->

<svg xmlns="http://www.w3.org/2000/svg" xmlns:xlink="http://www.w3.org/1999/xlink" version="1.1" id="Layer_1" x="0px" y="0px" width="100px" height="100px" enable-background="new 0 0 100 100" xml:space="preserve" style="fill: white; stroke: white; stroke-width:4;">
	
	<polygon points="64.451,37.669 91.021,11.099 88.899,8.978 62.326,35.552 62.787,22.967 59.786,22.861 59.131,40.864 77.136,40.21   77.029,37.209 "/>
	<polygon points="22.868,59.79 22.975,62.79 35.553,62.331 8.982,88.901 11.104,91.022 37.678,64.447 37.217,77.032 40.218,77.139   40.873,59.136 "/>
	<polygon points="91.02,88.898 64.445,62.324 77.029,62.785 77.137,59.785 59.133,59.129 59.786,77.134 62.787,77.027 62.328,64.449   88.898,91.02 "/>
	<polygon points="22.862,40.212 40.865,40.868 40.212,22.863 37.211,22.97 37.67,35.547 11.101,8.978 8.979,11.099 35.553,37.673   22.969,37.211 "/>

</svg>